<svg width="73" height="73" viewBox="0 0 73 73" fill="none" xmlns="http://www.w3.org/2000/svg">
<path d="M36.5 29.0128C43.7364 29.0128 49.6026 23.1466 49.6026 15.9102C49.6026 8.6739 43.7364 2.80768 36.5 2.80768C29.2637 2.80768 23.3975 8.6739 23.3975 15.9102C23.3975 23.1466 29.2637 29.0128 36.5 29.0128Z" fill="#CACECA"/>
<path fill-rule="evenodd" clip-rule="evenodd" d="M20.5897 15.9103C20.5897 7.12327 27.713 0 36.5 0C45.287 0 52.4102 7.12327 52.4102 15.9103C52.4102 24.6973 45.287 31.8205 36.5 31.8205C27.713 31.8205 20.5897 24.6973 20.5897 15.9103ZM36.5 5.61538C30.8143 5.61538 26.2051 10.2246 26.2051 15.9103C26.2051 21.596 30.8143 26.2051 36.5 26.2051C42.1857 26.2051 46.7948 21.596 46.7948 15.9103C46.7948 10.2246 42.1857 5.61538 36.5 5.61538Z" fill="#CACECA"/>
<path d="M2.80762 67.9462V70.1923H70.1922V67.9462C70.1922 59.5598 70.1922 55.3666 68.5602 52.1634C67.1246 49.3458 64.8337 47.0549 62.0161 45.6192C58.8129 43.9872 54.6197 43.9872 46.2333 43.9872H26.7666C18.3802 43.9872 14.187 43.9872 10.9838 45.6192C8.16615 47.0549 5.87536 49.3458 4.43973 52.1634C2.80762 55.3666 2.80762 59.5598 2.80762 67.9462Z" fill="#CACECA"/>
<path fill-rule="evenodd" clip-rule="evenodd" d="M26.6431 41.1795H46.3569C50.4454 41.1795 53.6854 41.1795 56.297 41.3928C58.9677 41.611 61.2274 42.0662 63.2907 43.1175C66.6366 44.8224 69.3571 47.5428 71.062 50.8887C72.1132 52.9521 72.5685 55.2118 72.7867 57.8825C73 60.494 73 63.7341 73 67.8225V70.1923C73 71.743 71.743 73 70.1923 73H2.80769C1.25705 73 8.74172e-07 71.743 8.74172e-07 70.1923L4.27901e-07 67.8226C-2.09931e-05 63.7341 -3.7947e-05 60.494 0.21334 57.8824C0.43154 55.2118 0.886792 52.9521 1.93813 50.8887C3.64293 47.5428 6.36323 44.8224 9.70921 43.1175C11.7726 42.0663 14.0323 41.611 16.703 41.3928C19.3146 41.1795 22.5546 41.1795 26.6431 41.1795ZM12.2585 48.1209C9.9692 49.2874 8.10793 51.1487 6.94148 53.438C6.36071 54.5779 5.9999 56.0164 5.81007 58.3397C5.62618 60.5905 5.61596 63.4386 5.61542 67.3846H67.3846C67.384 63.4386 67.3738 60.5905 67.1899 58.3397C67.0001 56.0164 66.6394 54.5779 66.0586 53.4381C64.8922 51.1488 63.0308 49.2874 60.7415 48.1209M12.2585 48.1209C13.3983 47.5402 14.8369 47.1794 17.1602 46.9896C19.5164 46.7971 22.5271 46.7949 26.7667 46.7949H46.2333C50.4729 46.7949 53.4836 46.7971 55.8398 46.9896C58.1631 47.1794 59.6017 47.5402 60.7415 48.1209" fill="#CACECA"/>
</svg>
